<?xml version="1.0" encoding="utf-8"?>
<!-- Generator: Adobe Illustrator 16.0.0, SVG Export Plug-In . SVG Version: 6.00 Build 0)  -->
<!DOCTYPE svg PUBLIC "-//W3C//DTD SVG 1.1//EN" "http://www.w3.org/Graphics/SVG/1.1/DTD/svg11.dtd">
<svg version="1.1" id="Layer_9" xmlns="http://www.w3.org/2000/svg" xmlns:xlink="http://www.w3.org/1999/xlink" x="0px" y="0px"
	 width="100px" height="100px" viewBox="0 0 100 100" enable-background="new 0 0 100 100" xml:space="preserve">
<path d="M86.636,27.206l0.054-0.135L51.519,12.744L13.405,27.219l-0.12-0.047v0.092l-0.005,0.003l0.005,0.015v45.953l35.406,13.966
	v0.055h2.622v-0.055L86.72,73.235V27.172L86.636,27.206z M51.485,15.561l8.457,3.445l2.479,1.01L28.513,33.179l-11.485-4.53
	L51.485,15.561z M48.691,84.38L34.94,78.828l-6.902-2.593l-12.13-4.785V31.027l12.009,4.737v10.108l1.071-0.299l0.723,0.994
	l1.007-0.235l0.976,1.031l0.85-0.294l1.374,1.362v-10.3l1.069,0.422l13.705,5.405V84.38z M50.003,41.656l-13.408-5.289
	l33.067-13.401l2.492,1.015l11.146,4.541L50.003,41.656z M84.097,71.45L51.313,84.38V43.958l32.783-12.931V71.45z"/>
</svg>
