<?xml version="1.0" encoding="utf-8"?>
<!-- Generator: Adobe Illustrator 16.0.0, SVG Export Plug-In . SVG Version: 6.00 Build 0)  -->
<!DOCTYPE svg PUBLIC "-//W3C//DTD SVG 1.1//EN" "http://www.w3.org/Graphics/SVG/1.1/DTD/svg11.dtd">
<svg version="1.1" id="Layer_10" xmlns="http://www.w3.org/2000/svg" xmlns:xlink="http://www.w3.org/1999/xlink" x="0px" y="0px"
	 width="100px" height="100px" viewBox="0 0 100 100" enable-background="new 0 0 100 100" xml:space="preserve">
<path d="M89.944,53.674c0-1.572-0.355-3.073-0.996-4.446c-0.066-0.349-0.141-0.698-0.236-1.051l-6.939-17.198l-0.047-0.155
	c-2.428-7.229-5.882-13.92-14.643-13.92H33.59c-8.976,0-12.148,6.857-14.629,13.88l-7.259,17.24
	c-1.049,1.681-1.646,3.605-1.646,5.65v5.351c0,0.827,0.098,1.636,0.284,2.416c-0.181,0.47-0.284,0.979-0.284,1.513V78.87
	c0,2.335,1.892,4.227,4.226,4.227h8.77c2.333,0,4.225-1.892,4.225-4.227v-7.958h45.947v7.958c0,2.335,1.892,4.227,4.226,4.227h8.269
	c2.334,0,4.226-1.892,4.226-4.227V62.953c0-0.533-0.103-1.043-0.284-1.513c0.186-0.78,0.284-1.589,0.284-2.416V53.674z
	 M24.111,32.511c2.763-7.796,4.985-10.176,9.479-10.176h33.492c4.461,0,6.944,2.654,9.469,10.142l5.063,10.262
	c-1.653-0.612-3.473-0.952-5.385-0.952H23.771c-1.721,0-3.366,0.277-4.884,0.778L24.111,32.511z M28.461,61.057h-9.253
	c-1.666,0-3.017-1.352-3.017-3.019c0-1.666,1.351-3.017,3.017-3.017h9.253c1.667,0,3.018,1.351,3.018,3.017
	C31.479,59.705,30.127,61.057,28.461,61.057z M61.148,60.453H39.625c-1.055,0-1.91-0.856-1.91-1.911c0-1.056,0.855-1.911,1.91-1.911
	h21.523c1.056,0,1.911,0.855,1.911,1.911C63.059,59.597,62.204,60.453,61.148,60.453z M80.559,61.057h-9.253
	c-1.667,0-3.017-1.352-3.017-3.019c0-1.666,1.351-3.017,3.017-3.017h9.253c1.667,0,3.018,1.351,3.018,3.017
	C83.577,59.705,82.226,61.057,80.559,61.057z"/>
</svg>
