<?xml version="1.0" encoding="utf-8"?>
<!-- Generator: Adobe Illustrator 17.0.0, SVG Export Plug-In . SVG Version: 6.00 Build 0)  -->
<!DOCTYPE svg PUBLIC "-//W3C//DTD SVG 1.1//EN" "http://www.w3.org/Graphics/SVG/1.1/DTD/svg11.dtd">
<svg version="1.1" id="Layer_1" xmlns="http://www.w3.org/2000/svg" xmlns:xlink="http://www.w3.org/1999/xlink" x="0px" y="0px"
	 width="26px" height="26px" viewBox="0 0 26 26" enable-background="new 0 0 26 26" xml:space="preserve">
<path d="M26,7.379v7.871c0,0-1.685,0.332-2.031,0.375s-1.433,0.395-2.222-0.363c-1.215-1.164-5.532-5.458-5.532-5.458
	s-0.744-0.73-1.94-0.099c-1.097,0.579-2.723,1.426-3.402,1.756c-0.242,0.168-0.535,0.268-0.852,0.268
	c-0.826,0-1.495-0.669-1.495-1.495c0-0.64,0.405-1.182,0.971-1.395c1.549-0.938,4.813-2.771,6.173-3.494
	c0.826-0.439,1.423-0.477,2.557,0.478c1.397,1.176,2.64,2.248,2.64,2.248s0.586,0.296,1.052,0.202C23.434,7.969,26,7.379,26,7.379z
	 M8.818,20.715c0.209-0.537,0.139-1.139-0.262-1.55c-0.36-0.37-0.885-0.468-1.387-0.353c0.14-0.496,0.063-1.025-0.3-1.398
	c-0.361-0.369-0.885-0.467-1.387-0.352c0.139-0.496,0.062-1.024-0.3-1.398c-0.567-0.582-1.549-0.557-2.193,0.059
	c-0.642,0.615-1.053,1.729-0.48,2.384c0.572,0.653,1.228,0.257,1.729,0.142c-0.139,0.496-0.557,0.958-0.043,1.608
	c0.513,0.651,1.228,0.257,1.729,0.142c-0.14,0.496-0.539,1.004-0.044,1.607c0.498,0.604,1.315,0.283,1.854,0.115
	c-0.208,0.535-0.653,1.111-0.081,1.76c0.571,0.65,1.892,0.348,2.537-0.268c0.643-0.616,0.705-1.59,0.138-2.174
	C9.938,20.639,9.355,20.547,8.818,20.715z M20.587,16.619c-4.662-4.662-2.469-2.469-4.978-4.982c0,0-0.755-0.751-1.749-0.315
	c-0.697,0.306-1.596,0.723-2.272,1.041c-0.744,0.389-1.394,0.508-1.528,0.508c-1.436,0-2.6-1.163-2.6-2.598
	c0-0.931,0.494-1.741,1.23-2.2c1.036-0.717,3.421-1.986,3.421-1.986s-0.726-0.921-2.318-0.921c-1.592,0-4.915,2.179-4.915,2.179
	S3.935,7.948,2.591,7.404L0,6.502v9.006c0,0,0.739,0.215,1.404,0.485c0.151-0.427,0.392-0.823,0.729-1.149
	c1.103-1.051,2.93-1.062,3.934-0.029c0.302,0.313,0.513,0.689,0.621,1.102c0.405,0.125,0.77,0.346,1.065,0.649
	c0.303,0.311,0.513,0.688,0.622,1.101c0.405,0.125,0.769,0.346,1.064,0.65c0.333,0.342,0.554,0.757,0.658,1.206
	c0.422,0.124,0.805,0.351,1.112,0.667c0.602,0.618,0.816,1.459,0.686,2.27c0.001,0.001,0.003,0.001,0.004,0.003
	c0.01,0.011,0.374,0.419,0.601,0.646c0.445,0.445,1.17,0.445,1.615,0c0.444-0.445,0.445-1.17,0-1.615
	c-0.015-0.015-0.036-0.02-0.052-0.034c0.001-0.004,0.006-0.009,0.006-0.014c-1.5-1.5-1.578-1.609-1.43-1.758
	c0.148-0.149,0.368,0.179,2.048,1.858c0.012,0.012,0.033,0.019,0.057,0.026c0.031,0.042,0.045,0.093,0.083,0.131
	c0.444,0.445,1.17,0.445,1.615,0c0.444-0.445,0.445-1.17,0-1.615c-0.02-0.02-0.047-0.029-0.068-0.047
	c-0.026-0.032-0.045-0.063-0.078-0.096c-1.531-1.53-1.706-1.821-1.589-1.938c0.133-0.134,0.848,0.649,2.371,2.173
	c0.005,0,0.011-0.003,0.016-0.003c0.447,0.404,1.137,0.4,1.568-0.031c0.419-0.42,0.429-1.081,0.057-1.529
	c-0.008-0.024-0.005-0.055-0.022-0.072c-1.93-1.93-1.848-1.959-1.73-2.076c0.118-0.117,0.125-0.125,2.016,1.766c0,0,0.001,0,0.001,0
	c0.004,0.004,0.004,0.009,0.008,0.013c0.444,0.445,1.17,0.445,1.615,0c0.444-0.445,0.445-1.17,0-1.615
	C20.601,16.627,20.593,16.625,20.587,16.619z"/>
</svg>
