<?xml version="1.0" encoding="iso-8859-1"?>
<!-- Generator: Adobe Illustrator 16.0.0, SVG Export Plug-In . SVG Version: 6.00 Build 0)  -->
<!DOCTYPE svg PUBLIC "-//W3C//DTD SVG 1.1//EN" "http://www.w3.org/Graphics/SVG/1.1/DTD/svg11.dtd">
<svg version="1.1" id="Layer_1" xmlns="http://www.w3.org/2000/svg" xmlns:xlink="http://www.w3.org/1999/xlink" x="0px" y="0px"
	 width="23.548px" height="31.979px" viewBox="0 0 23.548 31.979" style="enable-background:new 0 0 23.548 31.979;"
	 xml:space="preserve">
<g>
	<circle cx="5.87" cy="4.501" r="4.501"/>
	<path d="M22.298,11.48V7.814h-2.959V6.896h-1.813c0-0.574-0.484-1.041-1.083-1.041S15.36,6.322,15.36,6.896h-1.813v0.918h-3.417
		v1.87L10.042,9.68H7.509l-1.717,1.99L4.133,9.68L0.49,10.172l-0.238,8.276h1.547l0.082,1.68h0.236v1.026v0.755v8.014H1.807
		L0,30.313v1.665h1.537l1.796-0.293l0.017,0.293h1.987v-1.855v-0.2v-8.014H6.47v8.014v0.2v1.855h1.99l0.016-0.293l1.795,0.293h1.538
		v-1.665l-1.806-0.391H9.692v-8.014v-0.755v-1.026h0.286l0.152-2.972v6.991h12.167v-9.292h1.25V11.48H22.298z M16.443,6.517
		c0.241,0,0.438,0.195,0.438,0.438s-0.196,0.438-0.438,0.438s-0.438-0.195-0.438-0.438S16.202,6.517,16.443,6.517z M21.298,11.48
		h-0.792v3.375h0.792v8.292H11.131V8.814h2.417v0.708h5.791V8.814h1.959V11.48z"/>
	<path d="M19.456,17.159l-0.868-1.012h-0.608c0,0-0.288,0.247-0.433,0.371c-0.156-0.076-0.321-0.139-0.494-0.186
		c-0.014-0.172-0.041-0.515-0.041-0.515l-0.431-0.43l-1.328,0.107l-0.43,0.43c0,0,0.036,0.451,0.054,0.677
		c-0.13,0.074-0.253,0.158-0.367,0.25c-0.187-0.085-0.561-0.256-0.561-0.256l-0.588,0.154l-0.557,1.213l-0.02,0.082l0.174,0.506
		c0,0,0.435,0.198,0.651,0.297c0.01,0.144,0.032,0.283,0.067,0.418c-0.166,0.141-0.497,0.422-0.497,0.422v0.607l0.861,1.018
		c0,0,0.501,0.059,0.528,0.044c0.026-0.015,0.08-0.044,0.08-0.044s0.315-0.268,0.473-0.4c0.133,0.059,0.271,0.109,0.415,0.148
		c0.017,0.178,0.049,0.536,0.049,0.536l0.43,0.43l1.327-0.121l0.43-0.43c0,0-0.042-0.461-0.063-0.69
		c0.108-0.063,0.213-0.131,0.311-0.207c0.173,0.101,0.518,0.3,0.518,0.3l0.588-0.154l0.668-1.153l-0.154-0.589
		c0,0-0.444-0.257-0.667-0.386c-0.006-0.127-0.02-0.254-0.046-0.377c0.176-0.15,0.528-0.452,0.528-0.452V17.159z M16.219,20.049
		c-0.74,0-1.341-0.601-1.341-1.341s0.601-1.341,1.341-1.341s1.341,0.601,1.341,1.341S16.959,20.049,16.219,20.049z"/>
	<path d="M12.494,15.23l0.408,0.482c0,0,0.237,0.027,0.25,0.021c0.013-0.008,0.038-0.021,0.038-0.021s0.149-0.127,0.224-0.19
		c0.063,0.029,0.13,0.053,0.197,0.071c0.008,0.085,0.022,0.254,0.022,0.254l0.203,0.203l0.63-0.058l0.204-0.203
		c0,0-0.021-0.218-0.03-0.326c0.052-0.03,0.101-0.063,0.146-0.099c0.083,0.048,0.246,0.142,0.246,0.142l0.278-0.073l0.316-0.546
		l-0.073-0.279c0,0-0.211-0.121-0.316-0.183c-0.002-0.061-0.009-0.12-0.021-0.179c0.084-0.07,0.25-0.214,0.25-0.214v-0.289
		l-0.411-0.479h-0.288c0,0-0.137,0.116-0.204,0.175c-0.074-0.035-0.153-0.065-0.234-0.088c-0.007-0.081-0.021-0.243-0.021-0.243
		l-0.204-0.203l-0.629,0.05l-0.203,0.204c0,0,0.017,0.214,0.025,0.321c-0.062,0.035-0.12,0.074-0.175,0.117
		c-0.088-0.039-0.265-0.121-0.265-0.121l-0.278,0.073l-0.264,0.575l-0.01,0.038l0.082,0.24c0,0,0.206,0.095,0.309,0.141
		c0.005,0.068,0.016,0.134,0.032,0.197c-0.079,0.067-0.235,0.2-0.235,0.2V15.23z M13.934,13.843c0.35,0,0.636,0.285,0.636,0.636
		s-0.286,0.635-0.636,0.635c-0.351,0-0.635-0.284-0.635-0.635S13.583,13.843,13.934,13.843z"/>
	<path d="M14.586,12.055c0.003,0.045,0.01,0.089,0.021,0.131c-0.053,0.045-0.156,0.133-0.156,0.133v0.19l0.271,0.319
		c0,0,0.157,0.018,0.165,0.014c0.009-0.006,0.025-0.014,0.025-0.014s0.1-0.084,0.148-0.126c0.042,0.019,0.086,0.034,0.131,0.047
		c0.005,0.057,0.015,0.168,0.015,0.168l0.135,0.135l0.417-0.038l0.135-0.135c0,0-0.014-0.145-0.021-0.216
		c0.035-0.021,0.067-0.041,0.098-0.065c0.055,0.031,0.163,0.094,0.163,0.094l0.184-0.049l0.21-0.361l-0.049-0.185
		c0,0-0.14-0.08-0.209-0.121c-0.002-0.04-0.006-0.079-0.015-0.118c0.056-0.047,0.166-0.142,0.166-0.142v-0.191l-0.272-0.317h-0.19
		c0,0-0.091,0.078-0.136,0.116c-0.049-0.022-0.102-0.043-0.155-0.058c-0.004-0.055-0.014-0.161-0.014-0.161l-0.135-0.135
		l-0.416,0.033l-0.135,0.135c0,0,0.011,0.142,0.017,0.213c-0.041,0.023-0.079,0.05-0.115,0.077c-0.059-0.025-0.176-0.08-0.176-0.08
		l-0.185,0.049l-0.174,0.381l-0.007,0.025l0.055,0.159C14.382,11.962,14.518,12.024,14.586,12.055z M15.404,11.59
		c0.231,0,0.421,0.189,0.421,0.421c0,0.232-0.189,0.421-0.421,0.421c-0.232,0-0.42-0.188-0.42-0.421
		C14.984,11.779,15.172,11.59,15.404,11.59z"/>
</g>
<g>
</g>
<g>
</g>
<g>
</g>
<g>
</g>
<g>
</g>
<g>
</g>
<g>
</g>
<g>
</g>
<g>
</g>
<g>
</g>
<g>
</g>
<g>
</g>
<g>
</g>
<g>
</g>
<g>
</g>
</svg>
