<?xml version="1.0" encoding="utf-8"?>
<!-- Generator: Adobe Illustrator 17.0.0, SVG Export Plug-In . SVG Version: 6.00 Build 0)  -->
<!DOCTYPE svg PUBLIC "-//W3C//DTD SVG 1.1//EN" "http://www.w3.org/Graphics/SVG/1.1/DTD/svg11.dtd">
<svg version="1.1" id="Capa_1" xmlns="http://www.w3.org/2000/svg" xmlns:xlink="http://www.w3.org/1999/xlink" x="0px" y="0px"
	 width="64px" height="64px" viewBox="0 0 64 64" enable-background="new 0 0 64 64" xml:space="preserve">
<path d="M47.643,20.498v-0.138c0-9.017-7.145-14.566-17.34-14.566c-5.881,0-10.556,1.658-14.301,4.225
	c-2.177,1.492-2.373,4.763-0.778,6.868l1.163,1.535c1.595,2.104,4.451,2.304,6.763,1.027c2.107-1.164,4.244-1.794,6.251-1.794
	c3.329,0,5.202,1.456,5.202,3.815v0.069c0,2.983-2.844,7.246-10.89,7.939l-0.277,0.312c-0.153,0.172,0.04,2.429,0.43,5.04
	l0.32,2.129c0.39,2.611,2.586,4.727,4.903,4.727c2.317,0,4.383-0.994,4.611-2.219c0.231-1.226,0.417-2.22,0.417-2.22
	C41.815,35.373,47.643,29.238,47.643,20.498z"/>
<path d="M26.828,45.708c-2.64,0-4.779,2.14-4.779,4.78v2.232c0,2.64,2.14,4.78,4.779,4.78h4.104c2.64,0,4.78-2.14,4.78-4.78v-2.232
	c0-2.64-2.141-4.78-4.78-4.78H26.828z"/>
</svg>
