<?xml version="1.0" encoding="utf-8"?>
<!-- Generator: Adobe Illustrator 16.0.4, SVG Export Plug-In . SVG Version: 6.00 Build 0)  -->
<!DOCTYPE svg PUBLIC "-//W3C//DTD SVG 1.1//EN" "http://www.w3.org/Graphics/SVG/1.1/DTD/svg11.dtd">
<svg version="1.1" id="Layer_1" xmlns="http://www.w3.org/2000/svg" xmlns:xlink="http://www.w3.org/1999/xlink" x="0px" y="0px"
	 width="50px" height="50px" viewBox="0 0 50 50" enable-background="new 0 0 50 50" xml:space="preserve">
<path d="M27.793,19.06c-0.104-0.186-0.167-0.479-0.19-0.881h-0.779c0,0.506,0.083,0.904,0.25,1.201
	c0.307,0.549,0.886,0.852,1.739,0.907v0.854h0.418v-0.854c0.531-0.06,0.938-0.18,1.219-0.36c0.508-0.328,0.762-0.883,0.762-1.664
	c0-0.539-0.197-0.947-0.594-1.224c-0.244-0.168-0.706-0.347-1.387-0.538v-2.143c0.405,0.015,0.7,0.17,0.885,0.467
	c0.1,0.161,0.16,0.354,0.181,0.576h0.771c-0.015-0.497-0.178-0.896-0.491-1.2c-0.312-0.303-0.761-0.476-1.345-0.517v-0.576h-0.418
	v0.585c-0.589,0.006-1.049,0.188-1.375,0.546c-0.327,0.357-0.491,0.76-0.491,1.206c0,0.499,0.152,0.89,0.455,1.17
	c0.304,0.282,0.774,0.483,1.411,0.604v2.398C28.315,19.578,27.976,19.392,27.793,19.06z M29.229,17.326
	c0.367,0.101,0.628,0.205,0.783,0.315c0.27,0.191,0.406,0.471,0.406,0.838c0,0.23-0.052,0.436-0.15,0.611
	c-0.191,0.342-0.537,0.525-1.039,0.549V17.326z M28.028,16.076c-0.192-0.165-0.291-0.394-0.291-0.683c0-0.24,0.083-0.471,0.246-0.69
	c0.165-0.221,0.441-0.338,0.828-0.353v2.067C28.483,16.354,28.223,16.239,28.028,16.076z M17.752,10.282h22.527V23.97h-15.81v-4.66
	c0.816,1.695,2.538,2.877,4.546,2.877c2.794,0,5.059-2.266,5.059-5.061c0-2.794-2.265-5.061-5.059-5.061
	c-2.009,0-3.729,1.181-4.546,2.878V11.58l-0.701,0.212l-0.275,0.104c-1.75,0.65-2.746,2.484-2.732,5.027
	c0.009,1.91,0.006,5.053,0.003,7.047h-3.013L17.752,10.282L17.752,10.282z M23.907,24.751V12.373c0,0-0.125,0.025-0.217,0.05
	c-1.923,0.715-2.375,2.858-2.366,4.496c0.014,2.967,0,8.903,0,8.903s-2.484,1.022-3.805,1.696c-0.349,0.181-0.893,0.479-1.196,0.459
	c-0.05-0.983-0.538-1.936-1.408-2.541c-1.497-1.045-3.556-0.678-4.601,0.82c-0.911,1.308-0.746,3.045,0.305,4.157
	c0.069,0.087,0.14,0.175,0.219,0.259c0.231,0.16,0.462,0.32,0.691,0.48c0.744,0.336,1.836,0.479,2.663,0.128
	c0.608-0.259,1.222-0.746,1.832-1.155c1.764-1.191,3.658-1.927,5.655-1.754c0.851,1.812,0.818,3.844,0.31,5.911
	c-0.175,0.713-0.418,1.458-0.45,2.119c-0.044,0.897,0.468,1.872,1.042,2.454c0.229,0.16,0.458,0.318,0.69,0.48
	c0.104,0.045,0.211,0.082,0.317,0.117c1.408,0.602,3.095,0.153,4.006-1.152c1.044-1.498,0.677-3.556-0.821-4.602
	c-0.872-0.607-1.931-0.734-2.872-0.441c-0.125-0.276-0.03-0.891,0.017-1.281c0.176-1.473,0.322-2.799,0.276-4.16
	c2.542-0.965,5.564-2.064,8.354-3.076c0.104-0.038,0.212-0.08,0.318-0.124H24.31C24.053,24.703,23.907,24.751,23.907,24.751z
	 M14.506,29.179c-0.57,0.819-1.695,1.021-2.514,0.449c-0.818-0.57-1.021-1.695-0.45-2.515c0.57-0.817,1.696-1.019,2.515-0.448
	C14.876,27.236,15.076,28.361,14.506,29.179z M25.916,34.933c0.818,0.57,1.021,1.695,0.45,2.514
	c-0.569,0.818-1.696,1.02-2.515,0.447c-0.818-0.569-1.019-1.693-0.449-2.512C23.972,34.562,25.098,34.361,25.916,34.933z"/>
</svg>
