<?xml version="1.0" encoding="iso-8859-1"?>
<!-- Generator: Adobe Illustrator 16.0.4, SVG Export Plug-In . SVG Version: 6.00 Build 0)  -->
<!DOCTYPE svg PUBLIC "-//W3C//DTD SVG 1.1//EN" "http://www.w3.org/Graphics/SVG/1.1/DTD/svg11.dtd">
<svg version="1.1" id="Capa_1" xmlns="http://www.w3.org/2000/svg" xmlns:xlink="http://www.w3.org/1999/xlink" x="0px" y="0px"
	 width="42.143px" height="53.736px" viewBox="0 0 42.143 53.736" style="enable-background:new 0 0 42.143 53.736;"
	 xml:space="preserve">
<g>
	<path id="path4266" style="fill:#040606;" d="M20.979,19.966c1.906,0,3.451,1.545,3.451,3.451c0,1.905-1.545,3.45-3.451,3.45
		s-3.451-1.545-3.451-3.45C17.527,21.511,19.072,19.966,20.979,19.966z M15.135,9.516c-5.467,2.245-9.178,7.649-9.178,13.968
		c0,8.333,6.756,15.088,15.088,15.088c8.334,0,15.088-6.755,15.088-15.088c0-6.303-3.744-11.692-9.203-13.947
		c-1.275-0.527-2.346-0.849-2.273-0.946c0.049-0.063,0.094-0.129,0.094-0.193c0,0,0-0.899,0-2.007c0-1.108,0.615-2.147,1.1-2.675
		c0.328-0.355,0.42-0.762,0.42-1.196C26.27,1.127,23.934,0,21.152,0c-2.783,0-5.309,1.127-5.309,2.519
		c0,0.742,1.406,1.403,1.406,1.865v4.013c0,0.063,0.064,0.125,0.129,0.188C17.475,8.672,16.412,8.992,15.135,9.516"/>
	<path id="path4268" style="fill:#040606;" d="M4.395,48.022l1.281-3.156c0.355-0.872,1.432-1.32,2.404-1.004
		c0.973,0.317,1.475,1.281,1.121,2.152l-1.283,3.156c-0.354,0.871-1.43,1.321-2.402,1.004S4.041,48.894,4.395,48.022z
		 M12.898,45.122c0.123-0.919,0.924-1.559,1.793-1.43c0.867,0.13,1.471,0.979,1.35,1.897L15.6,48.915
		c-0.123,0.918-0.924,1.559-1.791,1.43c-0.867-0.13-1.473-0.979-1.352-1.897L12.898,45.122z M19.75,45.34
		c0-0.928,0.322-1.68,1.25-1.68s1.25,0.752,1.25,1.68v3.357c0,0.928-0.322,1.68-1.25,1.68s-1.25-0.752-1.25-1.68V45.34z
		 M27.451,43.692c0.867-0.129,1.67,0.511,1.791,1.43l0.441,3.325c0.123,0.919-0.482,1.768-1.348,1.897
		c-0.867,0.129-1.67-0.512-1.791-1.43l-0.443-3.325C25.98,44.671,26.584,43.822,27.451,43.692L27.451,43.692z M34.062,43.862
		c0.973-0.316,2.049,0.132,2.402,1.004l1.283,3.156c0.354,0.871-0.148,1.835-1.119,2.152c-0.975,0.317-2.049-0.133-2.404-1.004
		l-1.281-3.156C32.588,45.144,33.09,44.18,34.062,43.862z M1.719,52.396c3.848,0.49,11.623,1.341,19.354,1.341
		c7.783,0,15.521-0.848,19.354-1.339c1.369-0.175,2.061-1.38,1.547-2.663l-4.859-12.149c-0.514-1.281-1.711-1.511-2.832-0.706
		c-2.309,1.653-6.711,3.982-13.209,3.982c-6.5,0-10.902-2.329-13.209-3.982c-1.123-0.805-2.322-0.575-2.834,0.706L0.17,49.734
		C-0.344,51.018,0.348,52.221,1.719,52.396"/>
</g>
<g>
</g>
<g>
</g>
<g>
</g>
<g>
</g>
<g>
</g>
<g>
</g>
<g>
</g>
<g>
</g>
<g>
</g>
<g>
</g>
<g>
</g>
<g>
</g>
<g>
</g>
<g>
</g>
<g>
</g>
</svg>
