<?xml version="1.0" encoding="iso-8859-1"?>
<!-- Generator: Adobe Illustrator 16.0.4, SVG Export Plug-In . SVG Version: 6.00 Build 0)  -->
<!DOCTYPE svg PUBLIC "-//W3C//DTD SVG 1.1//EN" "http://www.w3.org/Graphics/SVG/1.1/DTD/svg11.dtd">
<svg version="1.1" id="Capa_1" xmlns="http://www.w3.org/2000/svg" xmlns:xlink="http://www.w3.org/1999/xlink" x="0px" y="0px"
	 width="15px" height="12.566px" viewBox="0 0 15 12.566" style="enable-background:new 0 0 15 12.566;" xml:space="preserve">
<path style="fill:#010002;" d="M9.559,3.828H5.441l-3.773,8.738h11.664L9.559,3.828z M7.877,12.134H7.123v-1.51h0.754V12.134z
	 M7.877,9.113H7.123v-1.51h0.754V9.113z M7.877,6.094H7.123v-1.51h0.754V6.094z M15,0v6.379h-3.054
	c0.011-0.125,0.02-0.25,0.02-0.377c0-2.491-2.02-4.512-4.512-4.512c-2.49,0-4.511,2.021-4.511,4.512
	c0,0.127,0.009,0.252,0.019,0.377H0V0H15z"/>
<g>
</g>
<g>
</g>
<g>
</g>
<g>
</g>
<g>
</g>
<g>
</g>
<g>
</g>
<g>
</g>
<g>
</g>
<g>
</g>
<g>
</g>
<g>
</g>
<g>
</g>
<g>
</g>
<g>
</g>
</svg>
